<svg xmlns="http://www.w3.org/2000/svg" viewBox="0 0 512 512" role="img" aria-labelledby="title desc">
  <title id="title">Noor-e-ada favicon</title>
  <desc id="desc">Minimal clothes hanger line icon with leaf sprig.</desc>
  <rect width="512" height="512" rx="88" fill="#fffaf3"/>
  <g fill="none" stroke="#111111" stroke-linecap="round" stroke-linejoin="round">
    <path d="M244 84c0-35 28-63 63-63s63 28 63 63c0 27-18 50-43 61-23 10-38 28-38 55" stroke-width="18"/>
    <circle cx="289" cy="216" r="15" fill="#111111" stroke="none"/>
    <path d="M287 230 86 350c-28 17-64-3-64-36 0-16 9-31 23-39l219-129" stroke-width="18"/>
    <path d="M311 230 455 307" stroke-width="18"/>
    <path d="M89 353h247c45 0 88-16 122-46" stroke-width="18"/>
    <path d="M365 331c28-69 79-116 139-135" stroke-width="13"/>
    <path d="M411 272c-26-4-47-26-50-53 31 1 56 23 50 53Z" stroke-width="12"/>
    <path d="M452 236c-8-26 6-55 32-68 12 30-2 58-32 68Z" stroke-width="12"/>
    <path d="M447 314c22-23 55-29 82-14-21 28-54 34-82 14Z" stroke-width="12"/>
  </g>
</svg>
