<svg xmlns="http://www.w3.org/2000/svg" width="1180" height="230" viewBox="70 275 1140 230">
<g>
<path d="M 98.28 488.37 C90.37,485.53 85.86,476.96 88.02,468.92 C90.16,460.97 92.80,459.32 130.00,442.63 C166.68,426.17 176.52,421.70 214.50,404.25 C262.93,381.99 261.48,382.79 264.67,376.65 C265.87,374.35 265.93,373.24 264.98,370.95 C264.02,368.63 264.10,367.51 265.40,364.90 C266.28,363.14 267.00,360.25 267.00,358.48 C267.00,353.94 270.26,350.35 277.44,346.96 C289.66,341.18 295.47,332.47 295.42,320.00 C295.40,313.87 294.90,311.56 292.73,307.35 C285.02,292.44 264.94,288.18 251.33,298.56 C247.11,301.78 242.73,309.26 242.04,314.44 C241.68,317.14 241.00,318.50 240.00,318.50 C238.89,318.50 238.59,317.60 238.84,315.00 C239.77,305.37 248.29,294.79 257.68,291.59 C263.65,289.56 273.33,289.55 279.27,291.58 C289.63,295.11 297.78,306.28 298.72,318.24 C299.82,332.14 290.88,345.66 277.77,349.93 C275.71,350.60 273.12,352.30 272.02,353.71 C269.81,356.51 269.25,363.42 271.12,364.58 C271.86,365.03 272.03,367.10 271.62,370.56 C271.05,375.44 271.25,376.18 274.25,380.17 C276.77,383.53 279.74,385.62 287.50,389.50 C298.60,395.05 360.48,423.28 380.00,431.69 C392.98,437.29 396.26,439.31 393.83,440.22 C393.10,440.49 387.55,438.50 381.50,435.79 C316.48,406.71 278.81,389.16 276.18,386.75 C274.83,385.51 272.49,382.81 270.98,380.75 L 268.22 377.01 L 266.49 379.75 C263.95,383.77 261.33,385.72 253.50,389.42 C225.45,402.68 173.83,426.29 113.03,453.67 C93.33,462.54 91.00,464.55 91.00,472.70 C91.00,478.86 93.33,482.79 98.32,485.06 C102.35,486.89 106.63,486.96 215.00,486.96 C278.94,486.97 332.55,486.55 339.19,486.00 C368.28,483.59 391.30,474.30 404.82,459.51 C411.31,452.41 414.00,446.75 414.00,440.20 C414.00,435.18 413.89,434.98 409.99,432.99 C401.44,428.63 396.84,417.66 398.90,406.55 C399.51,403.27 400.38,400.22 400.83,399.77 C402.25,398.35 414.61,410.56 416.47,415.21 C418.36,419.93 418.66,426.18 417.19,430.03 C416.65,431.43 416.52,435.22 416.90,438.53 L 417.59 444.50 L 423.80 432.25 C430.71,418.63 435.00,406.92 435.00,401.70 C435.00,394.69 434.03,392.60 429.89,390.66 C427.73,389.65 424.86,387.38 423.52,385.62 C418.95,379.62 417.27,368.38 419.65,359.75 C420.35,357.21 421.22,357.51 427.18,362.37 C436.21,369.73 440.17,380.16 437.04,388.39 C436.49,389.84 436.43,392.72 436.89,395.20 L 437.70 399.50 L 438.93 396.50 C440.64,392.35 447.00,369.05 447.00,366.94 C447.00,365.99 446.11,363.26 445.02,360.86 C441.95,354.08 442.30,345.71 445.98,338.41 C447.61,335.16 450.73,330.48 452.90,328.00 L 456.84 323.50 L 459.02 328.38 C461.78,334.55 462.79,347.06 460.97,352.59 C459.25,357.83 456.18,362.36 452.85,364.60 C450.71,366.04 449.73,367.99 448.38,373.47 C446.65,380.55 440.95,399.79 439.49,403.50 C438.98,404.80 440.16,404.12 442.85,401.55 C445.15,399.36 447.00,396.65 447.00,395.49 C447.00,392.22 452.49,384.37 456.74,381.55 C460.59,379.00 476.64,374.30 477.74,375.40 C478.06,375.73 477.02,379.25 475.42,383.24 C470.37,395.89 461.05,402.96 451.07,401.74 C444.51,400.93 437.21,408.68 431.51,422.50 C429.92,426.35 427.03,432.42 425.09,435.99 L 421.55 442.48 L 425.03 440.32 C426.94,439.13 429.12,436.88 429.88,435.33 C431.74,431.50 435.88,427.14 439.40,425.31 C443.16,423.34 458.00,422.22 458.00,423.90 C458.00,426.29 453.92,432.99 450.35,436.45 C445.53,441.13 440.22,442.75 434.66,441.23 C430.70,440.14 430.26,440.25 425.37,443.58 C422.55,445.51 419.40,448.04 418.37,449.21 C416.54,451.30 416.54,451.32 418.50,450.53 C423.55,448.48 430.92,447.00 436.03,447.00 C448.37,447.00 472.54,455.74 476.81,461.74 C484.22,472.16 480.24,485.13 468.59,488.52 C461.74,490.51 417.92,490.28 417.25,488.25 C416.92,487.27 422.13,487.00 441.10,487.00 C463.88,487.00 465.64,486.87 469.81,484.85 C473.24,483.19 474.69,481.70 476.21,478.25 C480.31,468.99 475.28,461.19 461.93,456.09 C444.53,449.45 430.08,448.50 419.65,453.32 C416.82,454.63 410.23,459.38 405.00,463.87 C390.00,476.77 375.24,483.35 351.53,487.73 C343.48,489.22 329.53,489.42 222.50,489.64 C117.19,489.86 101.98,489.71 98.28,488.37 ZM 446.35 436.50 C449.11,434.70 454.00,428.05 454.00,426.11 C454.00,425.16 452.89,425.00 449.75,425.48 C442.46,426.61 439.47,427.92 435.98,431.52 C432.26,435.36 432.38,435.73 436.64,433.51 C438.21,432.68 440.06,432.01 440.75,432.01 C443.27,431.99 441.89,433.74 438.00,435.50 C435.80,436.49 434.00,437.75 434.00,438.29 C434.00,439.76 443.48,438.39 446.35,436.50 ZM 410.63 426.02 C408.81,421.48 408.55,419.00 409.90,419.00 C410.39,419.00 411.61,421.26 412.60,424.01 C414.03,427.97 414.60,428.69 415.31,427.41 C416.64,425.03 415.25,418.10 412.50,413.41 C410.20,409.48 403.37,403.30 402.40,404.26 C400.88,405.78 400.91,415.20 402.44,419.82 C404.01,424.55 410.39,431.95 411.73,430.60 C412.02,430.32 411.52,428.26 410.63,426.02 ZM 460.54 397.12 C465.16,395.02 469.48,390.31 472.13,384.50 C475.03,378.15 474.78,377.91 467.53,379.92 C460.35,381.91 454.81,385.62 451.92,390.37 C449.05,395.08 449.57,395.49 454.15,392.12 C460.19,387.68 461.13,389.55 455.39,394.61 L 450.50 398.92 L 453.50 398.94 C455.15,398.95 458.32,398.13 460.54,397.12 ZM 430.14 382.12 C427.56,375.33 429.36,374.42 432.40,380.97 C434.51,385.55 434.83,385.83 435.36,383.71 C436.61,378.71 432.86,370.75 426.80,365.56 C423.03,362.34 422.47,362.13 421.85,363.71 C419.23,370.33 422.86,382.53 428.71,386.82 C432.27,389.42 432.55,388.48 430.14,382.12 ZM 450.92 352.81 C451.00,351.20 452.74,349.40 453.49,350.16 C453.69,350.36 453.24,353.13 452.50,356.32 C450.97,362.92 452.03,363.52 455.69,358.11 C459.51,352.48 460.46,344.97 458.44,336.40 C457.49,332.33 456.37,329.00 455.97,329.00 C454.50,329.00 447.86,339.80 446.41,344.57 C444.87,349.62 445.13,354.08 447.26,359.49 L 448.44 362.48 L 449.64 358.49 C450.31,356.30 450.88,353.74 450.92,352.81 ZM 681.67 472.33 C681.30,471.97 681.00,468.14 681.00,463.83 L 681.00 456.00 L 687.06 456.00 C691.10,456.00 692.90,456.36 692.46,457.07 C692.09,457.66 689.93,458.00 687.65,457.83 C683.78,457.55 683.48,457.72 683.18,460.26 C682.88,462.89 683.05,463.00 687.43,463.00 C689.95,463.00 692.00,463.45 692.00,464.00 C692.00,464.55 689.95,465.00 687.43,465.00 C683.04,465.00 682.88,465.11 683.18,467.75 C683.47,470.28 683.86,470.51 687.94,470.58 C694.62,470.69 694.44,473.00 687.75,473.00 C684.77,473.00 682.03,472.70 681.67,472.33 ZM 717.00 465.56 C717.00,458.21 716.93,458.00 714.56,458.00 C710.42,458.00 710.54,456.01 714.69,455.90 C716.79,455.85 719.75,455.69 721.29,455.55 C722.82,455.42 724.31,455.69 724.59,456.15 C724.88,456.62 723.74,457.00 722.06,457.00 L 719.00 457.00 L 719.00 464.44 C719.00,468.53 718.55,472.16 718.00,472.50 C717.37,472.89 717.00,470.34 717.00,465.56 ZM 744.75 472.43 C743.61,471.27 743.84,456.00 745.00,456.00 C745.55,456.00 746.00,457.58 746.00,459.50 L 746.00 463.00 L 751.00 463.00 L 756.00 463.00 L 756.00 459.56 C756.00,457.67 756.45,455.84 757.00,455.50 C757.64,455.11 758.00,458.16 758.00,463.94 C758.00,469.31 757.59,473.00 757.00,473.00 C756.45,473.00 756.00,471.20 756.00,469.00 L 756.00 465.00 L 751.06 465.00 L 746.11 465.00 L 745.81 469.09 C745.64,471.35 745.16,472.85 744.75,472.43 ZM 780.00 464.50 C780.00,459.49 780.41,456.00 781.00,456.00 C781.55,456.00 784.14,458.76 786.75,462.12 L 791.50 468.25 L 791.80 461.59 C791.97,457.70 792.49,455.18 793.05,455.53 C794.28,456.29 794.30,473.00 793.06,473.00 C792.54,473.00 789.96,470.07 787.31,466.49 L 782.50 459.98 L 782.20 466.49 C781.77,476.05 780.00,474.45 780.00,464.50 ZM 816.00 464.50 C816.00,459.50 816.41,456.00 817.00,456.00 C817.59,456.00 818.00,459.50 818.00,464.50 C818.00,469.50 817.59,473.00 817.00,473.00 C816.41,473.00 816.00,469.50 816.00,464.50 ZM 843.36 472.05 C838.78,470.12 836.73,464.25 839.08,459.85 C840.77,456.69 846.19,454.82 849.91,456.12 C851.61,456.71 853.00,457.60 853.00,458.10 C853.00,459.23 852.72,459.22 849.56,458.02 C844.30,456.02 839.01,461.27 841.01,466.51 C842.23,469.74 846.12,471.29 849.64,469.95 C852.48,468.87 853.97,469.43 852.40,471.00 C850.94,472.46 845.77,473.06 843.36,472.05 ZM 896.07 465.77 C894.78,461.77 893.52,457.94 893.26,457.25 C893.00,456.56 893.43,456.00 894.21,456.00 C895.10,456.00 896.37,458.51 897.61,462.75 L 899.59 469.50 L 901.88 462.75 C903.13,459.04 904.73,456.00 905.42,456.00 C906.12,456.00 907.50,458.70 908.50,462.00 C909.50,465.30 910.62,468.00 911.00,468.00 C911.38,468.00 912.50,465.30 913.50,462.00 C914.50,458.70 915.84,456.00 916.47,456.00 C917.23,456.00 916.71,458.87 914.98,464.25 C913.42,469.11 911.78,472.50 911.00,472.50 C910.26,472.50 908.69,469.62 907.45,466.00 C906.11,462.08 905.00,460.10 904.65,461.00 C904.33,461.83 903.26,464.71 902.28,467.42 C901.30,470.12 900.03,472.49 899.45,472.68 C898.88,472.87 897.35,469.76 896.07,465.77 ZM 937.71 472.38 C937.32,471.99 937.00,468.14 937.00,463.83 L 937.00 456.00 L 943.00 456.00 C946.33,456.00 949.00,456.44 949.00,457.00 C949.00,457.55 946.97,458.00 944.50,458.00 C940.37,458.00 940.00,458.20 940.00,460.50 C940.00,462.75 940.40,463.00 944.00,463.00 C946.20,463.00 948.00,463.45 948.00,464.00 C948.00,464.55 946.20,465.00 944.00,465.00 C940.42,465.00 940.00,465.26 940.00,467.45 C940.00,469.65 940.46,469.92 944.75,470.20 C947.36,470.36 949.39,470.95 949.26,471.50 C948.98,472.66 938.77,473.44 937.71,472.38 ZM 968.40 470.97 C969.43,466.04 975.04,454.91 976.15,455.59 C977.63,456.51 984.17,471.00 983.71,472.37 C983.51,472.97 982.54,472.23 981.56,470.73 C979.04,466.88 973.52,466.89 970.22,470.75 L 967.87 473.50 L 968.40 470.97 ZM 979.00 465.45 C979.00,465.15 978.27,463.49 977.38,461.77 L 975.77 458.65 L 974.38 461.94 C972.60,466.19 972.52,466.00 976.00,466.00 C977.65,466.00 979.00,465.75 979.00,465.45 ZM 1003.82 464.51 L 1003.50 456.00 L 1008.60 456.00 C1016.02,456.00 1019.45,460.64 1015.37,465.15 C1013.86,466.81 1013.86,467.14 1015.45,469.56 C1018.00,473.46 1016.25,473.98 1013.17,470.23 C1009.86,466.21 1006.00,465.78 1006.00,469.44 C1006.00,470.78 1005.58,472.14 1005.07,472.45 C1004.54,472.78 1004.01,469.40 1003.82,464.51 ZM 1013.88 463.22 C1015.41,460.36 1013.41,458.00 1009.45,458.00 C1006.17,458.00 1006.00,458.18 1006.00,461.50 C1006.00,464.83 1006.17,465.00 1009.46,465.00 C1011.76,465.00 1013.25,464.40 1013.88,463.22 ZM 528.00 466.00 C528.00,465.34 548.50,465.00 587.50,465.00 C626.50,465.00 647.00,465.34 647.00,466.00 C647.00,466.66 626.50,467.00 587.50,467.00 C548.50,467.00 528.00,466.66 528.00,466.00 ZM 1056.00 466.00 C1056.00,465.34 1077.17,465.00 1117.50,465.00 C1157.83,465.00 1179.00,465.34 1179.00,466.00 C1179.00,466.66 1157.83,467.00 1117.50,467.00 C1077.17,467.00 1056.00,466.66 1056.00,466.00 ZM 624.91 418.45 C618.57,416.49 611.79,410.25 609.02,403.83 C607.16,399.50 606.84,397.32 607.22,391.40 C608.21,376.03 618.67,366.55 634.50,366.66 C642.94,366.73 647.35,368.44 653.39,374.00 C658.64,378.85 661.20,384.71 661.32,392.20 C661.46,400.59 659.51,405.52 653.69,411.49 C645.98,419.40 635.90,421.83 624.91,418.45 ZM 642.62 416.09 C647.89,413.69 651.38,409.05 653.56,401.50 C655.06,396.31 655.13,394.69 654.06,389.50 C651.43,376.66 644.38,369.00 634.50,368.25 C625.51,367.57 617.63,373.48 615.02,382.88 C612.50,391.95 614.71,403.80 620.15,410.38 C626.04,417.51 634.67,419.70 642.62,416.09 ZM 706.33 418.21 C698.88,415.55 694.54,411.81 691.37,405.33 C686.01,394.38 688.29,381.49 696.97,373.65 C704.01,367.29 711.60,365.18 720.99,366.99 C734.29,369.54 742.59,379.83 742.40,393.50 C742.29,401.46 740.13,406.71 734.80,412.05 C727.84,419.01 715.84,421.61 706.33,418.21 ZM 723.30 416.65 C727.74,414.79 732.68,408.89 734.08,403.76 C738.84,386.31 729.09,368.00 715.04,368.00 C703.40,368.00 695.93,376.96 695.78,391.10 C695.59,409.52 709.48,422.42 723.30,416.65 ZM 530.55 416.55 C533.00,414.09 533.00,414.08 533.00,392.62 L 533.00 371.15 L 530.37 369.07 L 527.73 367.00 L 532.78 367.00 L 537.83 367.00 L 554.50 387.00 C563.67,398.00 571.35,407.00 571.58,407.00 C571.81,407.00 572.00,398.90 572.00,389.00 C572.00,372.33 571.85,370.85 570.00,369.00 L 568.00 367.00 L 573.61 367.00 L 579.22 367.00 L 576.86 368.91 C574.52,370.81 574.50,370.97 574.18,394.91 C574.01,408.16 573.56,419.00 573.18,419.00 C572.80,419.00 564.17,409.00 554.00,396.78 L 535.50 374.55 L 535.23 393.80 C534.94,414.02 535.34,416.39 539.32,417.99 C540.91,418.64 539.69,418.89 534.80,418.94 L 528.09 419.00 L 530.55 416.55 ZM 771.78 417.44 C773.96,415.91 774.00,415.52 774.00,393.00 C774.00,370.48 773.96,370.09 771.78,368.56 C769.71,367.11 770.35,367.00 780.91,367.00 C787.16,367.00 794.03,367.53 796.18,368.17 C805.67,371.01 809.10,381.40 802.89,388.47 C801.18,390.42 798.68,392.29 797.35,392.63 C796.01,392.96 795.04,393.52 795.21,393.87 C797.58,398.97 809.73,415.48 812.24,417.00 L 815.50 418.99 L 810.15 419.00 C803.58,419.00 801.73,417.29 794.61,404.57 C789.55,395.53 787.81,394.08 782.89,394.80 L 780.00 395.23 L 780.01 403.86 C780.03,414.34 780.54,416.46 783.34,417.82 C785.04,418.64 783.82,418.88 777.53,418.93 C770.04,419.00 769.69,418.91 771.78,417.44 ZM 796.13 389.18 C798.53,386.49 799.00,385.09 799.00,380.63 C799.00,376.40 798.51,374.76 796.62,372.73 C794.16,370.07 788.36,367.92 785.27,368.51 C784.30,368.70 782.71,368.88 781.75,368.92 C780.18,368.99 780.00,370.27 780.00,381.12 L 780.00 393.23 L 786.63 392.81 C792.58,392.43 793.56,392.06 796.13,389.18 ZM 878.78 417.44 C880.96,415.91 881.00,415.52 881.00,393.00 C881.00,370.48 880.96,370.09 878.78,368.56 C876.73,367.12 877.95,367.00 894.28,367.00 L 912.00 367.00 L 912.00 372.25 L 911.99 377.50 L 910.05 374.31 C907.22,369.68 905.00,368.88 895.74,369.21 L 887.50 369.50 L 887.50 380.25 L 887.50 391.00 L 894.67 391.00 C901.32,391.00 901.98,390.80 903.88,388.25 L 905.94 385.50 L 905.97 391.75 C905.99,395.27 905.56,398.00 905.00,398.00 C904.45,398.00 904.00,397.34 904.00,396.54 C904.00,394.22 900.62,393.00 894.20,393.00 L 888.26 393.00 L 887.64 396.75 C886.85,401.53 886.85,411.82 887.63,414.75 C888.19,416.85 888.77,417.00 896.37,416.99 C905.64,416.97 908.50,415.87 911.72,411.09 C914.20,407.41 914.52,408.23 913.36,415.25 L 912.74 419.00 L 894.65 419.00 C877.99,419.00 876.73,418.88 878.78,417.44 ZM 979.06 417.53 C980.47,416.76 982.12,415.04 982.73,413.69 C983.35,412.34 987.97,401.62 993.02,389.87 C998.06,378.12 1002.74,367.92 1003.42,367.22 C1004.57,366.01 1010.13,377.75 1024.05,410.79 C1025.41,414.02 1027.30,416.64 1028.89,417.50 C1031.32,418.82 1030.92,418.92 1023.06,418.96 C1015.73,418.99 1014.86,418.82 1016.46,417.65 C1018.63,416.06 1018.27,413.06 1015.02,405.75 L 1012.91 401.00 L 1001.91 401.00 L 990.91 401.00 L 988.46 406.25 C985.57,412.47 985.32,416.51 987.75,417.92 C989.07,418.69 987.89,418.94 983.00,418.93 C976.89,418.92 976.65,418.84 979.06,417.53 ZM 1012.00 398.64 C1012.00,397.76 1002.82,377.42 1002.09,376.69 C1001.64,376.24 1000.57,377.59 999.72,379.68 C998.86,381.78 996.57,386.99 994.61,391.25 L 991.05 399.00 L 1001.53 399.00 C1007.29,399.00 1012.00,398.84 1012.00,398.64 ZM 1057.66 417.87 C1058.85,417.27 1060.08,415.81 1060.40,414.64 C1060.71,413.46 1060.98,403.45 1060.99,392.38 C1061.00,373.31 1060.89,372.13 1058.85,369.54 L 1056.70 366.81 L 1071.10 367.17 C1083.47,367.49 1086.20,367.86 1090.49,369.82 C1100.70,374.48 1104.43,380.54 1104.47,392.50 C1104.50,401.46 1103.01,405.57 1097.76,410.94 C1091.31,417.53 1088.18,418.44 1071.00,418.72 C1059.23,418.91 1056.02,418.70 1057.66,417.87 ZM 1086.95 415.03 C1092.02,412.44 1094.68,408.91 1096.64,402.16 C1099.95,390.78 1096.81,379.15 1088.66,372.59 C1085.12,369.74 1084.11,369.47 1075.91,369.15 L 1067.00 368.80 L 1067.00 392.23 C1067.00,405.12 1067.30,415.97 1067.67,416.33 C1068.03,416.70 1071.65,417.00 1075.71,417.00 C1081.07,417.00 1084.13,416.46 1086.95,415.03 ZM 1128.69 416.25 C1130.05,414.74 1135.61,403.19 1141.04,390.59 C1146.48,377.99 1151.35,367.25 1151.87,366.73 C1152.91,365.69 1152.41,364.63 1165.53,395.33 C1172.47,411.55 1175.00,416.47 1176.97,417.54 C1179.29,418.80 1178.79,418.92 1171.06,418.96 C1163.73,418.99 1162.86,418.82 1164.46,417.65 C1166.63,416.06 1166.27,413.06 1163.02,405.75 L 1160.91 401.00 L 1149.92 401.00 L 1138.93 401.00 L 1136.96 405.59 C1133.80,412.96 1133.57,414.86 1135.54,417.04 C1137.28,418.96 1137.21,419.00 1131.77,419.00 L 1126.23 419.00 L 1128.69 416.25 ZM 1159.72 397.75 C1155.50,387.11 1150.59,376.00 1150.10,376.00 C1149.58,376.00 1142.70,391.13 1140.43,397.25 C1139.84,398.84 1140.69,399.00 1150.00,399.00 C1157.77,399.00 1160.10,398.70 1159.72,397.75 ZM 835.00 396.50 C835.00,395.28 836.61,395.00 843.50,395.00 C850.39,395.00 852.00,395.28 852.00,396.50 C852.00,397.72 850.39,398.00 843.50,398.00 C836.61,398.00 835.00,397.72 835.00,396.50 ZM 939.00 396.50 C939.00,395.28 940.61,395.00 947.50,395.00 C954.39,395.00 956.00,395.28 956.00,396.50 C956.00,397.72 954.39,398.00 947.50,398.00 C940.61,398.00 939.00,397.72 939.00,396.50 Z" fill="rgba(0,0,0,1)"/>
</g>
</svg>