<svg xmlns="http://www.w3.org/2000/svg" viewBox="0 0 108 72" role="img" aria-labelledby="title desc">
  <title id="title">Noor-e-ada logo mark</title>
  <desc id="desc">A hanger shaped ethnic wear logo mark with a leaf accent.</desc>
  <rect width="108" height="72" rx="12" fill="#fffaf3"/>
  <path d="M49.5 15.5c0-5.5 4.4-9.5 9.5-9.5 5.5 0 10 4.5 10 10 0 4.2-2.6 7.5-6.4 9.2-3.5 1.6-5.6 4.3-5.6 8.1" fill="none" stroke="#251c17" stroke-width="4.2" stroke-linecap="round"/>
  <circle cx="57" cy="36" r="3.8" fill="#9b2f43"/>
  <path d="M56.7 39.7 21.5 59.2c-3.3 1.8-7.1-.6-7.1-4.4 0-1.8 1-3.5 2.5-4.4L52.2 31" fill="none" stroke="#251c17" stroke-width="4.2" stroke-linecap="round" stroke-linejoin="round"/>
  <path d="M60.8 39.7 84.5 52.8" fill="none" stroke="#251c17" stroke-width="4.2" stroke-linecap="round"/>
  <path d="M22 59.5h47c7.6 0 14.9-2.8 20.5-7.9" fill="none" stroke="#251c17" stroke-width="4.2" stroke-linecap="round"/>
  <path d="M75.5 54.4c4.2-10.9 11.8-18 20.5-20.7" fill="none" stroke="#9b2f43" stroke-width="3.2" stroke-linecap="round"/>
  <path d="M82.9 44.8c-4.2-.5-7.6-3.9-8-8.3 4.8.1 8.6 3.6 8 8.3Z" fill="#fffaf3" stroke="#9b2f43" stroke-width="3"/>
  <path d="M89 39.3c-1.2-4 1-8.5 5-10.5 1.8 4.4-.2 8.9-5 10.5Z" fill="#fffaf3" stroke="#9b2f43" stroke-width="3"/>
  <path d="M88.6 51.9c3.1-3.4 8.1-4.2 12.1-1.9-2.9 4.2-8 5.1-12.1 1.9Z" fill="#fffaf3" stroke="#9b2f43" stroke-width="3"/>
</svg>
